<svg width="16px" height="11px" viewBox="0 0 16 11" version="1.1" xmlns="http://www.w3.org/2000/svg" xmlns:xlink="http://www.w3.org/1999/xlink" class="svg-icon svg-fill">
    <g transform="translate(8.000000, 5.500000) scale(-1, 1) translate(-8.000000, -5.500000) ">
        <path d="M14.2453873,5.04166649 L10.1263333,0.766641673 C9.94586557,0.579340271 9.96049537,0.289468132 10.1590099,0.119194129 C10.3575244,-0.051079873 10.6647502,-0.0372764378 10.845218,0.150024965 L16,5.49999677 L10.845218,10.8499747 C10.6647502,11.0372761 10.3575244,11.0510795 10.1590099,10.8808055 C9.96049537,10.7105315 9.94586557,10.4206594 10.1263333,10.233358 L14.245382,5.95833316 L0.458333333,5.95833316 C0.205202823,5.95833316 3.09995469e-17,5.75313034 0,5.49999983 C-3.09995469e-17,5.24686932 0.205202823,5.04166649 0.458333333,5.04166649 L14.2453873,5.04166649 Z" ></path>
    </g>
</svg>