<?xml version="1.0" encoding="UTF-8"?>
<svg width="16px" height="16px" viewBox="0 0 16 16" version="1.1" xmlns="http://www.w3.org/2000/svg" xmlns:xlink="http://www.w3.org/1999/xlink" class="svg-icon svg-fill">
    <!-- Generator: sketchtool 55.2 (78181) - https://sketchapp.com -->
    <title>597E582F-4168-447A-96BE-FBBE8A8C8E25</title>
    <desc>Created with sketchtool.</desc>
    <g id="Asset-Artboard-Page" stroke="none" stroke-width="1" fill="none" fill-rule="evenodd">
        <g id="Icons/edit">
            <polygon id="Path-5" fill="#B3D9EB" points="3 12 2 14 5 13 3 11"></polygon>
            <path d="M1,0.983745497 L1,12.5081273 C1,12.7797811 0.776142375,13 0.5,13 C0.223857625,13 -8.65973959e-13,12.7797811 -8.65973959e-13,12.5081273 L-8.65973959e-13,0.491872749 C-8.65973959e-13,0.220218931 0.223857625,-1.29674049e-13 0.5,-1.29674049e-13 L11,-1.29674049e-13 C11.2761424,-1.29674049e-13 11.5,0.220218931 11.5,0.491872749 C11.5,0.763526567 11.2761424,0.983745497 11,0.983745497 L1,0.983745497 Z M3.49934701,15 L15.001306,15 L15.001306,7.5 C15.001306,7.22385763 15.2248713,7 15.500653,7 C15.7764347,7 16,7.22385763 16,7.5 L16,15.5 C16,15.7761424 15.7764347,16 15.500653,16 L3.49934701,16 C3.22356527,16 3,15.7761424 3,15.5 C3,15.2238576 3.22356527,15 3.49934701,15 Z M5.25735,12.38905 L13.74265,3.90375 L12.32845,2.48955 L3.84315,10.97485 L5.25735,12.38905 Z M4.48504783,13.0309478 L3.18065958,11.7265596 L2.1384,13.9453 L4.48504783,13.0309478 Z M14.4497017,3.19660174 L14.4681,3.1778 L14.4857,3.1587 L14.5028,3.1393 L14.5192,3.1198 L14.5349,3.0999 L14.5501,3.0798 L14.5646,3.0595 L14.5786,3.039 L14.5919,3.0182 L14.6047,2.9971 L14.6169,2.9759 L14.6286,2.9544 L14.6396,2.9327 L14.6501,2.9108 L14.6601,2.8886 L14.6694,2.8663 L14.6783,2.8438 L14.6865,2.8211 L14.6942,2.7982 L14.7013,2.7751 L14.7079,2.7519 L14.7139,2.7285 L14.7193,2.705 L14.7242,2.6814 L14.7285,2.6577 L14.7322,2.6339 L14.7354,2.61 L14.738,2.586 L14.74,2.5619 L14.7414,2.5378 L14.7423,2.5137 L14.7426,2.4895 L14.7423,2.4654 L14.7414,2.4413 L14.74,2.4172 L14.738,2.3931 L14.7354,2.3692 L14.7322,2.3452 L14.7285,2.3214 L14.7242,2.2977 L14.7193,2.274 L14.7139,2.2505 L14.7079,2.2272 L14.7013,2.204 L14.6942,2.1809 L14.6865,2.158 L14.6782,2.1353 L14.6694,2.1128 L14.6601,2.0905 L14.6501,2.0683 L14.6396,2.0464 L14.6286,2.0247 L14.6169,2.0032 L14.6047,1.982 L14.5919,1.9609 L14.5786,1.9401 L14.5646,1.9196 L14.5501,1.8992 L14.5349,1.8792 L14.5192,1.8593 L14.5028,1.8398 L14.4857,1.8204 L14.4681,1.8013 L14.4497,1.7825 L14.4309,1.7641 L14.4118,1.7464 L14.3924,1.7294 L14.3729,1.713 L14.353,1.6973 L14.3329,1.6821 L14.3126,1.6676 L14.2921,1.6536 L14.2713,1.6403 L14.2503,1.6275 L14.229,1.6153 L14.2075,1.6036 L14.1858,1.5926 L14.1639,1.5821 L14.1417,1.5721 L14.1194,1.5628 L14.0969,1.554 L14.0742,1.5457 L14.0513,1.538 L14.0282,1.5309 L14.005,1.5243 L13.9817,1.5183 L13.9582,1.5129 L13.9345,1.508 L13.9108,1.5037 L13.887,1.5 L13.863,1.4968 L13.8391,1.4942 L13.815,1.4922 L13.7909,1.4908 L13.7668,1.4899 L13.7427,1.4896 L13.7185,1.4899 L13.6944,1.4908 L13.6703,1.4922 L13.6462,1.4942 L13.6223,1.4968 L13.5983,1.5 L13.5745,1.5037 L13.5508,1.508 L13.5271,1.5129 L13.5037,1.5183 L13.4803,1.5243 L13.4571,1.5309 L13.434,1.538 L13.4111,1.5457 L13.3884,1.5539 L13.3659,1.5628 L13.3435,1.5721 L13.3214,1.5821 L13.2995,1.5926 L13.2778,1.6036 L13.2563,1.6153 L13.2351,1.6275 L13.214,1.6403 L13.1932,1.6536 L13.1727,1.6676 L13.1524,1.6821 L13.1323,1.6973 L13.1124,1.713 L13.0929,1.7294 L13.0735,1.7464 L13.0544,1.7641 L13.0355983,1.78249826 L14.4497017,3.19660174 Z M13.7906,0.4901 L13.8386,0.4918 L13.8865,0.4947 L13.9344,0.4987 L13.9821,0.5039 L14.0298,0.5101 L14.0773,0.5176 L14.1246,0.5262 L14.1718,0.5359 L14.2188,0.5468 L14.2656,0.5588 L14.3121,0.5719 L14.3583,0.5862 L14.4043,0.6017 L14.4499,0.6183 L14.4953,0.636 L14.5402,0.6549 L14.5848,0.6749 L14.629,0.6961 L14.6727,0.7184 L14.7161,0.7418 L14.7589,0.7664 L14.8013,0.7922 L14.8431,0.8191 L14.8844,0.8471 L14.9252,0.8763 L14.9654,0.9066 L15.005,0.938 L15.0439,0.9707 L15.0822,1.0044 L15.1199,1.0393 L15.1569,1.0753 C15.1569,1.0753 15.1929,1.1123 15.1929,1.1123 L15.2278,1.15 L15.2615,1.1883 L15.2942,1.2272 L15.3256,1.2668 L15.3559,1.307 L15.3851,1.3478 L15.4131,1.3891 L15.44,1.4309 L15.4658,1.4733 L15.4904,1.5161 L15.5138,1.5595 L15.5361,1.6032 L15.5573,1.6474 L15.5773,1.692 L15.5962,1.7369 L15.6139,1.7823 L15.6305,1.8279 L15.646,1.8739 L15.6603,1.9201 L15.6734,1.9666 L15.6854,2.0134 L15.6963,2.0604 L15.706,2.1076 L15.7146,2.1549 L15.7221,2.2024 L15.7283,2.2501 L15.7335,2.2978 L15.7375,2.3457 L15.7404,2.3936 L15.7421,2.4416 L15.7426,2.4895 L15.7421,2.5375 L15.7404,2.5855 L15.7375,2.6334 L15.7335,2.6813 L15.7283,2.729 L15.7221,2.7767 L15.7146,2.8242 L15.706,2.8715 L15.6963,2.9187 L15.6854,2.9657 L15.6734,3.0125 L15.6603,3.059 L15.646,3.1052 L15.6305,3.1512 L15.6139,3.1968 L15.5962,3.2421 L15.5773,3.2871 L15.5573,3.3317 L15.5361,3.3759 L15.5138,3.4196 L15.4904,3.463 L15.4658,3.5058 L15.44,3.5482 L15.4131,3.59 L15.3851,3.6313 L15.3559,3.6721 L15.3256,3.7123 L15.2942,3.7519 L15.2616,3.7908 L15.2278,3.8291 L15.1929,3.8668 L15.1569,3.9038 L5.2574,13.8033 L0.169,15.786 L2.4289,10.9748 L12.3284,1.0753 L12.3654,1.0393 L12.4031,1.0044 L12.4414,0.9706 L12.4803,0.938 L12.5199,0.9066 L12.5601,0.8763 L12.6009,0.8471 L12.6422,0.8191 L12.684,0.7922 L12.7264,0.7664 L12.7692,0.7418 L12.8126,0.7184 L12.8563,0.6961 L12.9005,0.6749 L12.9451,0.6549 L12.9901,0.636 L13.0354,0.6183 L13.081,0.6017 L13.127,0.5862 L13.1732,0.5719 L13.2197,0.5588 L13.2665,0.5468 L13.3135,0.5359 L13.3607,0.5262 L13.408,0.5176 L13.4555,0.5101 L13.5032,0.5039 L13.5509,0.4987 L13.5988,0.4947 L13.6467,0.4918 L13.6947,0.4901 L13.7427,0.4896 L13.7906,0.4901 Z" id="Combined-Shape" fill="#454D52"></path>
        </g>
    </g>
</svg>