<svg width="24px" height="16px" viewBox="0 0 24 16" version="1.1" xmlns="http://www.w3.org/2000/svg" xmlns:xlink="http://www.w3.org/1999/xlink" class="svg-icon svg-fill">
    <path d="M19.2514766,13.3199559 C16.9744432,15.106652 14.5572843,16 12,16 C9.40028786,16 6.94538936,15.076763 4.6353045,13.2302891 L1.24395779,15.4326554 L0.699318752,14.5939849 L3.84093848,12.5537932 C2.51122471,11.3508102 1.23091189,9.8328791 0,8 C1.2575916,6.12739369 2.56674886,4.58353623 3.92747178,3.36842762 L0.699318752,1.27204053 L1.24395779,0.433369963 L4.72816931,2.69604338 C7.01115181,0.898680312 9.43509499,0 12,0 C14.5221931,0 16.9080801,0.868999124 19.1576608,2.60699737 L22.5047535,0.433369963 L23.0493926,1.27204053 L19.9662327,3.27426793 C21.3651052,4.50343694 22.7096942,6.07868096 24,8 C22.7365695,9.88130067 21.4210934,11.4307927 20.0535717,12.6484761 L23.0493926,14.5939849 L22.5047535,15.4326554 L19.2514778,13.3199535 Z M4.79787372,3.93367325 C3.56763198,4.99599382 2.37301372,6.34981555 1.21313693,8 C2.34527965,9.61072653 3.51052228,10.9390937 4.70968506,11.9896225 L7.49834242,10.1786473 C7.17905119,9.52012527 7,8.78097246 7,8 C7,7.17877052 7.19798617,6.40378318 7.54883081,5.72016567 L4.79787372,3.93367325 Z M5.61705077,3.27328975 L8.09213698,4.88062953 C9.00834902,3.73432554 10.418419,3 12,3 C13.532088,3 14.9032314,3.68908564 15.820408,4.77423468 L18.2656329,3.18628711 C16.2699192,1.72213942 14.1825765,1 12,1 C9.77461795,1 7.64824187,1.75074294 5.61705077,3.27328975 Z M18.3620456,12.7423495 L15.8924406,11.1385693 C14.9758696,12.2738672 13.5727335,13 12,13 C10.3779087,13 8.93622701,12.2275749 8.02271137,11.0304814 L5.52172874,12.6546385 C7.58169132,14.225568 9.73978065,15 12,15 C14.2177492,15 16.3371705,14.2543982 18.3620456,12.7423495 Z M19.1827989,12.0829896 C20.4198571,11.0181752 21.6209132,9.65882475 22.7868631,8 C21.5929441,6.30138287 20.3622143,4.91678016 19.0937119,3.84088956 L16.3867575,5.59880634 C16.7776874,6.3114834 17,7.12977975 17,8 C17,8.83000275 16.797761,9.61277006 16.4398726,10.3017124 L19.182798,12.082989 Z M15.0481362,10.5902715 L13.3424126,9.48256169 C12.9875075,9.80411354 12.5166296,10 12,10 C11.4328788,10 10.9208892,9.76395349 10.5569187,9.38474794 L8.86444088,10.4838559 C9.59715011,11.4075653 10.7293898,12 12,12 C13.2211183,12 14.3144356,11.4528186 15.0481362,10.5902715 Z M15.5960611,9.75373485 C15.8547899,9.22419977 16,8.6290577 16,8 C16,7.33069523 15.8356145,6.69978476 15.545015,6.14544027 L13.8524323,7.24461634 C13.9475695,7.47768255 14,7.73271838 14,8 C14,8.22666111 13.9622949,8.44451574 13.8928149,8.64763378 L15.5960611,9.75373485 Z M8.39316777,6.2684845 C8.14118337,6.79242631 8,7.37972558 8,8 C8,8.57995093 8.12342362,9.13107472 8.34543706,9.62853758 L10.065935,8.51123316 C10.0229148,8.34804719 10,8.17669962 10,8 C10,7.78223897 10.0348022,7.57260641 10.0991479,7.37636093 L8.39316777,6.2684845 Z M8.93592032,5.42858884 L10.6389433,6.53454491 C10.9959199,6.20284734 11.4742712,6 12,6 C12.4745023,6 12.9104101,6.16524278 13.2533177,6.44132262 L14.9733716,5.32430656 C14.2412084,4.51121544 13.1803046,4 12,4 C10.7700049,4 9.66967572,4.55516559 8.93592032,5.42858884 Z" id="Combined-Shape"></path>
</svg>