<?xml version="1.0" encoding="UTF-8"?>
<svg width="16px" height="16px" viewBox="0 0 16 16" version="1.1" xmlns="http://www.w3.org/2000/svg" xmlns:xlink="http://www.w3.org/1999/xlink" class="svg-icon svg-fill">
    <!-- Generator: sketchtool 55.2 (78181) - https://sketchapp.com -->
    <title>F6E4BFF4-84E8-4950-B456-7AA1B50AD780</title>
    <desc>Created with sketchtool.</desc>
    <g id="Asset-Artboard-Page" stroke="none" stroke-width="1" fill="none" fill-rule="evenodd">
        <g id="Icons/dashboard/FAQ/off-Copy-2" fill="#454D52">
            <g id="Group-7">
                <path d="M8,0 C12.418,0 16,3.582 16,8 C16,12.418 12.418,16 8,16 C3.582,16 0,12.418 0,8 C0,3.582 3.582,0 8,0 Z M8,0.666666667 C3.95666667,0.666666667 0.666666667,3.95666667 0.666666667,8 C0.666666667,12.0433333 3.95666667,15.3333333 8,15.3333333 C12.0433333,15.3333333 15.3333333,12.0433333 15.3333333,8 C15.3333333,3.95666667 12.0433333,0.666666667 8,0.666666667 Z M8.90560007,10.5527334 C8.90560007,10.8020667 8.81826674,11.0120667 8.64426674,11.1827334 C8.47026673,11.3540667 8.2549334,11.4394 8.00026673,11.4394 C7.87560006,11.4394 7.7589334,11.4180667 7.65026673,11.3740667 C7.54093339,11.3314 7.44493339,11.2687334 7.36093339,11.1880667 C7.27693339,11.1067334 7.21026673,11.0134 7.16026673,10.9074 C7.11093339,10.8020667 7.08560006,10.6867334 7.08560006,10.5627334 C7.08560006,10.4447334 7.10893339,10.3307334 7.15560006,10.2220667 C7.20226673,10.1127334 7.26760006,10.0174 7.35160006,9.93673338 C7.43560006,9.85606672 7.53360006,9.79206672 7.64560006,9.74540005 C7.75760006,9.69873338 7.87560006,9.67606672 8.00026673,9.67606672 C8.12426673,9.67606672 8.24160007,9.69873338 8.35026673,9.74540005 C8.4589334,9.79206672 8.55560007,9.85473338 8.63960007,9.93206671 C8.72360007,10.0100667 8.7889334,10.1034 8.83560007,10.2120667 C8.88226674,10.3207334 8.90560007,10.4347334 8.90560007,10.5527334 Z M10.2776,6.42806679 C10.2776,6.63340013 10.2529333,6.81340012 10.2022666,6.96940012 C10.1522666,7.12406679 10.0822666,7.26740012 9.99093331,7.39873345 C9.90026665,7.52940012 9.79093332,7.65140012 9.66293332,7.76673345 C9.53426666,7.88206678 9.38893333,8.00206678 9.2256,8.12606678 C9.12560001,8.20740011 9.04293334,8.27940011 8.97693335,8.34140011 C8.91160001,8.40273344 8.86026668,8.46673344 8.82226668,8.53206678 C8.78426669,8.59740011 8.75760002,8.66606677 8.74226669,8.73740011 C8.72626669,8.80940011 8.71893335,8.89540011 8.71893335,8.99406677 L8.71893335,9.23673344 L7.2629334,9.23673344 L7.2629334,8.88206677 C7.2629334,8.72073344 7.2789334,8.57606678 7.30960007,8.44873344 C7.34026673,8.32073344 7.38760006,8.20406678 7.44960006,8.09806678 C7.51160006,7.99273345 7.58760006,7.89006678 7.67826672,7.79006678 C7.76826672,7.69073345 7.87560005,7.58806678 8.00026671,7.48273345 L8.3082667,7.19340012 C8.4142667,7.09940012 8.50426669,7.00206679 8.57893336,6.89940012 C8.65360002,6.79606679 8.69093336,6.67406679 8.69093336,6.53073346 C8.69093336,6.33140013 8.63026669,6.17273346 8.50893336,6.0540668 C8.38760003,5.9360668 8.22160004,5.87673347 8.00960004,5.87673347 C7.74826672,5.87673347 7.55226673,5.96540013 7.42160006,6.14273346 C7.2909334,6.3200668 7.21960007,6.52140013 7.2069334,6.74540012 L5.72293345,6.58673346 C5.76026678,6.25073346 5.84560011,5.95540013 5.97960011,5.7000668 C6.11360011,5.44473347 6.2856001,5.23340014 6.49760009,5.06540014 C6.70893342,4.89740014 6.94826674,4.77140014 7.2169334,4.68673348 C7.48493339,4.60273348 7.76893339,4.56073348 8.06826671,4.56073348 C8.34893337,4.56073348 8.62226669,4.59673348 8.88760002,4.66873348 C9.15226667,4.74006681 9.38826667,4.85206681 9.59426666,5.00473347 C9.80026665,5.15673347 9.96559998,5.35073347 10.0902666,5.5880668 C10.2156,5.8240668 10.2776,6.1040668 10.2776,6.42806679 Z" id="Combined-Shape"></path>
            </g>
        </g>
    </g>
</svg>