<?xml version="1.0" encoding="UTF-8"?>
<svg width="24px" height="24px" viewBox="0 0 24 24" version="1.1" xmlns="http://www.w3.org/2000/svg" xmlns:xlink="http://www.w3.org/1999/xlink" class="svg-icon svg-fill">
    <!-- Generator: sketchtool 55.2 (78181) - https://sketchapp.com -->
    <title>21003334-7ED2-46C7-91AC-C2B61915E91C</title>
    <desc>Created with sketchtool.</desc>
    <g id="Asset-Artboard-Page" stroke="none" stroke-width="1" fill="none" fill-rule="evenodd">
        <g id="icons/campaign/active">
            <g id="Group-25">
                <path d="M4,23.190336 C3.173,23.190336 2.5,22.544256 2.5,21.750336 L2.5,13.590336 L7.5,13.590336 L7.5,21.750336 C7.5,22.544256 6.827,23.190336 6,23.190336 L4,23.190336 Z" id="Fill-1" fill="#FFFFFF"></path>
                <path d="M8,13.110336 L2,13.110336 L2,21.750336 C2,22.810176 2.896,23.670336 4,23.670336 L6,23.670336 C7.104,23.670336 8,22.810176 8,21.750336 L8,13.110336 Z M7,14.070336 L7,21.750336 C7,22.280256 6.552,22.710336 6,22.710336 L4,22.710336 C3.448,22.710336 3,22.280256 3,21.750336 L3,14.070336 L7,14.070336 L7,14.070336 Z" id="Fill-3" fill="#454D52"></path>
                <path d="M18.5908,16.799424 C18.5518,16.799424 18.5118,16.794624 18.4728,16.785024 L0.4998,12.472704 L0.4998,6.63014402 L18.4508,1.45958402 C18.4968,1.44614402 18.5438,1.43942402 18.5908,1.43942402 C18.8198,1.43942402 19.0668,1.61606402 19.0668,1.89926402 L19.0668,16.339584 C19.0668,16.593024 18.8528,16.799424 18.5908,16.799424" id="Fill-5" fill="#FFFFFF"></path>
                <g id="Group-9" transform="translate(0.000000, 0.630336)" fill="#454D52">
                    <path d="M18.5898,0.329568014 C18.4968,0.329568014 18.4028,0.343008014 18.3078,0.369888014 L-0.0002,5.64220801 L-0.0002,12.217248 L18.3518,16.620768 C18.4318,16.640928 18.5118,16.649568 18.5908,16.649568 C19.1138,16.649568 19.5668,16.241568 19.5668,15.709728 L19.5668,1.26940801 C19.5668,0.735648014 19.1108,0.329568014 18.5898,0.329568014 M18.5668,1.29724803 L18.5938,15.6895677 L0.9998,11.4674878 L0.9998,6.3564479 L18.5668,1.29724803" id="Fill-7"></path>
                </g>
                <path d="M19.5,11.670336 L19.5,6.870336 L21,6.870336 C22.379,6.870336 23.5,7.947456 23.5,9.270336 C23.5,10.593216 22.379,11.670336 21,11.670336 L19.5,11.670336 Z" id="Fill-10" fill="#FFFFFF"></path>
                <path d="M21,6.390336 L19,6.390336 L19,12.150336 L21,12.150336 C22.657,12.150336 24,10.861056 24,9.270336 C24,7.679616 22.657,6.390336 21,6.390336 M21,7.350336 C22.103,7.350336 23,8.211456 23,9.270336 C23,10.329216 22.103,11.190336 21,11.190336 L20,11.190336 L20,7.350336 L21,7.350336" id="Fill-12" fill="#454D52"></path>
                <path d="M2.3145,14.550336 C1.3145,14.550336 0.5005,13.769856 0.5005,12.808896 L0.5005,5.731776 C0.5005,4.771776 1.3145,3.990336 2.3145,3.990336 L2.6855,3.990336 C3.6855,3.990336 4.5005,4.771776 4.5005,5.731776 L4.5005,12.808896 C4.5005,13.769856 3.6855,14.550336 2.6855,14.550336 L2.3145,14.550336 Z" id="Fill-14" fill="#FFFFFF"></path>
                <g id="Group-18" transform="translate(0.000000, 3.510336)" fill="#454D52">
                    <path d="M2.6855,0 L2.3145,0 C1.0365,0 -0.0005,0.99456 -0.0005,2.22144 L-0.0005,9.29856 C-0.0005,10.52544 1.0365,11.52 2.3145,11.52 L2.6855,11.52 C3.9635,11.52 4.9995,10.52544 4.9995,9.29856 L4.9995,2.22144 C4.9995,0.99456 3.9635,0 2.6855,0 M2.6855,0.96 C3.4105,0.96 3.9995,1.5264 3.9995,2.22144 L3.9995,9.29856 C3.9995,9.9936 3.4105,10.56 2.6855,10.56 L2.3145,10.56 C1.5895,10.56 0.9995,9.9936 0.9995,9.29856 L0.9995,2.22144 C0.9995,1.5264 1.5895,0.96 2.3145,0.96 L2.6855,0.96" id="Fill-16"></path>
                </g>
                <path d="M7.5,19.3503369 L7.5,16.4703369 L9,16.4703369 C9.275,16.4703369 9.5,16.6863369 9.5,16.9503369 L9.5,18.8703369 C9.5,19.1343369 9.275,19.3503369 9,19.3503369 L7.5,19.3503369 Z" id="Fill-19" fill="#FFFFFF"></path>
                <path d="M9,15.9903369 L7,15.9903369 L7,19.8303369 L9,19.8303369 C9.553,19.8303369 10,19.4012169 10,18.8703369 L10,16.9503369 C10,16.4194569 9.553,15.9903369 9,15.9903369 L9,15.9903369 Z M8,18.8703369 L9,18.8703369 L9,16.9503369 L8,16.9503369 L8,18.8703369 Z" id="Fill-21" fill="#454D52"></path>
                <polygon id="Fill-23" fill="#454D52" points="12 15.36 13 15.990336 13 3.510336 12 3.510336"></polygon>
            </g>
        </g>
    </g>
</svg>