<?xml version="1.0" encoding="UTF-8"?>
<svg width="16px" height="16px" viewBox="0 0 16 16" version="1.1" xmlns="http://www.w3.org/2000/svg" xmlns:xlink="http://www.w3.org/1999/xlink" class="svg-icon svg-fill">
    <!-- Generator: sketchtool 55.2 (78181) - https://sketchapp.com -->
    <title>13B60542-16BB-4D77-9A47-2D5DEA764C73</title>
    <desc>Created with sketchtool.</desc>
    <g id="Asset-Artboard-Page" stroke="none" stroke-width="1" fill="none" fill-rule="evenodd">
        <g id="Icons/edit-Copy" fill="#454D52">
            <path d="M3,15 L13,15 L13,7 L3,7 L3,15 Z M4.833,4.365 L4.833,6 L11.167,6 L11.167,4.365 C11.167,2.693 9.807,1.333 8.135,1.333 L7.865,1.333 C6.193,1.333 4.833,2.693 4.833,4.365 Z M13.316,6 C13.693,6 14,6.307 14,6.684 L14,16 L2,16 L2,6.684 C2,6.307 2.307,6 2.684,6 L3.5,6 L3.5,4.365 C3.5,1.954 5.455,0 7.865,0 L8.135,0 C10.545,0 12.5,1.954 12.5,4.365 L12.5,6 L13.316,6 Z M9.5,10.5 C9.5,11.152 9.081,11.701 8.5,11.908 L8.5,13.541 C8.5,13.794 8.294,14 8.041,14 L7.959,14 C7.706,14 7.5,13.794 7.5,13.541 L7.5,11.908 C6.919,11.701 6.5,11.152 6.5,10.5 C6.5,9.672 7.172,9 8,9 C8.828,9 9.5,9.672 9.5,10.5 Z" id="Combined-Shape"></path>
        </g>
    </g>
</svg>