<?xml version="1.0" encoding="UTF-8"?>
<svg width="16px" height="16px" viewBox="0 0 16 16" version="1.1" xmlns="http://www.w3.org/2000/svg" xmlns:xlink="http://www.w3.org/1999/xlink" class="svg-icon svg-fill">
    <!-- Generator: sketchtool 55.2 (78181) - https://sketchapp.com -->
    <title>20BC4348-3E9B-4CA5-9E11-D60DEDA4099A</title>
    <desc>Created with sketchtool.</desc>
    <g id="Asset-Artboard-Page" stroke="none" stroke-width="1" fill="none" fill-rule="evenodd">
        <g id="icons/search" fill="#8B959C">
            <g id="Group">
                <path d="M9.19438347,7.72056681 L10.4696962,8.99580376 L10.5056,8.9616 L10.543,8.9294 L10.5818,8.8992 L10.622,8.8709 L10.6634,8.8448 L10.7059,8.8207 L10.7495,8.7988 L10.7941,8.779 L10.8396,8.7615 L10.8859,8.7462 L10.933,8.7331 L10.9808,8.7223 L11.0291,8.7139 L11.0779,8.7078 L11.1272,8.7042 L11.1768,8.7029 L11.2264,8.7042 L11.2756,8.7078 L11.3245,8.7139 L11.3728,8.7223 L11.4205,8.7331 L11.4676,8.7462 L11.514,8.7615 L11.5595,8.7791 L11.6041,8.7988 L11.6477,8.8207 L11.6902,8.8448 L11.7316,8.8709 L11.7717,8.8992 L11.8105,8.9294 L11.848,8.9616 L11.8839,8.9958 L15.4194,12.5314 L15.4536,12.5673 L15.4858,12.6047 L15.5161,12.6435 L15.5443,12.6837 L15.5704,12.725 L15.5945,12.7676 L15.6164,12.8112 L15.6362,12.8558 L15.6538,12.9013 L15.6691,12.9476 L15.6821,12.9947 L15.6929,13.0425 L15.7014,13.0908 L15.7074,13.1396 L15.7111,13.1889 L15.7123,13.2385 L15.7111,13.288 L15.7074,13.3373 L15.7014,13.3861 L15.6929,13.4345 L15.6822,13.4822 L15.6691,13.5293 L15.6538,13.5756 L15.6362,13.6211 L15.6164,13.6657 L15.5945,13.7093 L15.5705,13.7519 L15.5443,13.7933 L15.5161,13.8334 L15.4859,13.8722 L15.4536,13.9096 L15.4194,13.9456 L14.0052,15.3598 L13.9693,15.394 L13.9318,15.4262 L13.893,15.4565 L13.8529,15.4847 L13.8115,15.5108 L13.769,15.5349 L13.7254,15.5568 L13.6808,15.5766 L13.6353,15.5941 L13.5889,15.6095 L13.5418,15.6225 L13.4941,15.6333 L13.4458,15.6417 L13.3969,15.6478 L13.3477,15.6515 L13.2981,15.6527 L13.2485,15.6515 L13.1993,15.6478 L13.1504,15.6417 L13.1021,15.6333 L13.0543,15.6225 L13.0073,15.6095 L12.9609,15.5941 L12.9154,15.5766 L12.8708,15.5568 L12.8272,15.5349 L12.7847,15.5108 L12.7433,15.4847 L12.7032,15.4565 L12.6643,15.4262 L12.6269,15.394 L12.591,15.3598 L9.0555,11.8243 L9.0213,11.7883 L8.989,11.7509 L8.9588,11.7121 L8.9306,11.672 L8.9044,11.6306 L8.8804,11.588 L8.8584,11.5444 L8.8387,11.4998 L8.8211,11.4543 L8.8058,11.408 L8.7927,11.3609 L8.782,11.3132 L8.7735,11.2648 L8.7675,11.216 L8.7638,11.1667 L8.7626,11.1172 L8.7638,11.0676 L8.7675,11.0183 L8.7735,10.9695 L8.782,10.9212 L8.7927,10.8734 L8.8058,10.8263 L8.8211,10.78 L8.8387,10.7345 L8.8584,10.6899 L8.8804,10.6463 L8.9044,10.6037 L8.9306,10.5624 L8.9588,10.5222 L8.989,10.4834 L9.0213,10.446 L9.05545128,10.4100513 L7.79240953,9.14700953 L7.6941,9.2118 L7.5919,9.2757 L7.488,9.3371 L7.3825,9.3961 L7.2754,9.4526 L7.1669,9.5066 L7.0569,9.558 L6.9454,9.6068 L6.8326,9.6529 L6.7757,9.675 L6.7184,9.6963 L6.6608,9.717 L6.6029,9.7371 L6.5447,9.7564 L6.4862,9.775 L6.4273,9.7929 L6.3682,9.8101 L6.3087,9.8266 L6.249,9.8424 L6.1889,9.8575 L6.1286,9.8718 L6.068,9.8854 L6.0071,9.8983 L5.946,9.9104 L5.8846,9.9218 L5.8229,9.9324 L5.761,9.9423 L5.6989,9.9514 L5.6364,9.9597 L5.5738,9.9673 L5.5109,9.9741 L5.4478,9.9801 L5.3845,9.9854 L5.3209,9.9898 L5.2571,9.9934 L5.1932,9.9963 L5.129,9.9983 L5.0646,9.9995 L5,10 L4.9354,9.9995 L4.871,9.9983 L4.8068,9.9963 L4.7429,9.9934 L4.6791,9.9898 L4.6155,9.9854 L4.5522,9.9801 L4.4891,9.9741 L4.4262,9.9673 L4.3636,9.9597 L4.3011,9.9514 L4.239,9.9423 L4.1771,9.9324 L4.1154,9.9218 L4.054,9.9104 L3.9929,9.8983 L3.932,9.8854 L3.8714,9.8718 L3.8111,9.8575 L3.751,9.8424 L3.6913,9.8266 L3.6318,9.8101 L3.5727,9.7929 L3.5138,9.775 L3.4553,9.7564 L3.3971,9.7371 L3.3392,9.717 L3.2816,9.6963 L3.2243,9.675 L3.1674,9.6529 L3.0546,9.6068 L2.9431,9.558 L2.8331,9.5066 L2.7246,9.4526 L2.6175,9.3961 L2.512,9.3371 L2.4081,9.2757 L2.3059,9.2118 L2.2053,9.1455 L2.1064,9.077 L2.0092,9.0061 L1.9138,8.933 L1.8203,8.8576 L1.7286,8.7801 L1.6388,8.7004 L1.551,8.6186 L1.4652,8.5348 L1.3813,8.4489 L1.2996,8.3611 L1.2199,8.2713 L1.1424,8.1796 L1.067,8.0861 L0.9939,7.9907 L0.923,7.8936 L0.8544,7.7947 L0.7882,7.6941 L0.7243,7.5918 L0.6628,7.4879 L0.6038,7.3824 L0.5473,7.2754 L0.4934,7.1669 L0.442,7.0568 L0.3932,6.9454 L0.347,6.8326 L0.325,6.7756 L0.3036,6.7184 L0.2829,6.6608 L0.2629,6.6029 L0.2436,6.5447 L0.2249,6.4861 L0.207,6.4273 L0.1898,6.3681 L0.1733,6.3087 L0.1575,6.2489 L0.1425,6.1889 L0.1281,6.1286 L0.1145,6.068 L0.1017,6.0071 L0.0895,5.946 L0.0782,5.8846 L0.0675,5.8229 L0.0577,5.761 L0.0485,5.6988 L0.0402,5.6364 L0.0326,5.5738 L0.0258,5.5109 L0.0198,5.4478 L0.0146,5.3844 L0.0102,5.3209 L0.0065,5.2571 L0.0037,5.1931 L0.0016,5.1289 L0.0004,5.0645 L-3.83693077e-13,5 L0.0004,4.9354 L0.0016,4.871 L0.0037,4.8068 L0.0065,4.7428 L0.0102,4.679 L0.0146,4.6155 L0.0198,4.5521 L0.0258,4.489 L0.0326,4.4262 L0.0402,4.3635 L0.0485,4.3011 L0.0577,4.2389 L0.0675,4.177 L0.0782,4.1153 L0.0895,4.0539 L0.1017,3.9928 L0.1145,3.9319 L0.1281,3.8713 L0.1425,3.811 L0.1575,3.751 L0.1733,3.6912 L0.1898,3.6318 L0.207,3.5726 L0.2249,3.5138 L0.2436,3.4552 L0.2629,3.397 L0.2829,3.3391 L0.3036,3.2815 L0.325,3.2243 L0.347,3.1673 L0.3932,3.0545 L0.442,2.9431 L0.4934,2.8331 L0.5473,2.7245 L0.6038,2.6175 L0.6628,2.512 L0.7243,2.4081 L0.7882,2.3058 L0.8544,2.2052 L0.923,2.1063 L0.9939,2.0092 L1.067,1.9138 L1.1424,1.8203 L1.2199,1.7286 L1.2996,1.6388 L1.3813,1.551 L1.4652,1.4651 L1.551,1.3813 L1.6388,1.2995 L1.7286,1.2198 L1.8203,1.1423 L1.9138,1.067 L2.0092,0.9938 L2.1064,0.9229 L2.2053,0.8544 L2.3059,0.7881 L2.4081,0.7242 L2.512,0.6628 L2.6175,0.6038 L2.7246,0.5473 L2.8331,0.4933 L2.9431,0.4419 L3.0546,0.3931 L3.1674,0.347 L3.2243,0.3249 L3.2816,0.3036 L3.3392,0.2829 L3.3971,0.2628 L3.4553,0.2435 L3.5138,0.2249 L3.5727,0.207 L3.6318,0.1898 L3.6913,0.1733 L3.751,0.1575 L3.8111,0.1424 L3.8714,0.1281 L3.932,0.1145 L3.9929,0.1016 L4.054,0.0895 L4.1154,0.0781 L4.1771,0.0675 L4.239,0.0576 L4.3011,0.0485 L4.3636,0.0402 L4.4262,0.0326 L4.4891,0.0258 L4.5522,0.0198 L4.6155,0.0145 L4.6791,0.0101 L4.7429,0.0065 L4.8068,0.0036 L4.871,0.0016 L4.9354,0.0004 L5,-1.0658141e-14 L5.0646,0.0004 L5.129,0.0016 L5.1932,0.0036 L5.2571,0.0065 L5.3209,0.0101 L5.3845,0.0145 L5.4478,0.0198 L5.5109,0.0258 L5.5738,0.0326 L5.6364,0.0402 L5.6989,0.0485 L5.761,0.0576 L5.8229,0.0675 L5.8846,0.0781 L5.946,0.0895 L6.0071,0.1016 L6.068,0.1145 L6.1286,0.1281 L6.1889,0.1424 L6.249,0.1575 L6.3087,0.1733 L6.3682,0.1898 L6.4273,0.207 L6.4862,0.2249 L6.5447,0.2435 L6.6029,0.2628 L6.6608,0.2829 L6.7184,0.3036 L6.7757,0.3249 L6.8326,0.347 L6.9454,0.3931 L7.0569,0.4419 L7.1669,0.4933 L7.2754,0.5473 L7.3825,0.6038 L7.488,0.6628 L7.5919,0.7242 L7.6941,0.7881 L7.7947,0.8544 L7.8936,0.9229 L7.9908,0.9938 L8.0862,1.067 L8.1797,1.1423 L8.2714,1.2198 L8.3612,1.2995 L8.449,1.3813 L8.5348,1.4651 L8.6187,1.551 L8.7004,1.6388 L8.7801,1.7286 L8.8576,1.8203 L8.933,1.9138 L9.0061,2.0092 L9.077,2.1063 L9.1456,2.2052 L9.2118,2.3058 L9.2757,2.4081 L9.3372,2.512 L9.3962,2.6175 L9.4527,2.7245 L9.5066,2.8331 L9.558,2.9431 L9.6068,3.0545 L9.653,3.1673 L9.675,3.2243 L9.6964,3.2815 L9.7171,3.3391 L9.7371,3.397 L9.7564,3.4552 L9.7751,3.5138 L9.793,3.5726 L9.8102,3.6318 L9.8267,3.6912 L9.8425,3.751 L9.8575,3.811 L9.8719,3.8713 L9.8855,3.9319 L9.8983,3.9928 L9.9105,4.0539 L9.9218,4.1153 L9.9325,4.177 L9.9423,4.2389 L9.9515,4.3011 L9.9598,4.3635 L9.9674,4.4262 L9.9742,4.489 L9.9802,4.5521 L9.9854,4.6155 L9.9898,4.679 L9.9935,4.7428 L9.9963,4.8068 L9.9984,4.871 L9.9996,4.9354 L10,5 L9.9996,5.0645 L9.9984,5.1289 L9.9963,5.1931 L9.9935,5.2571 L9.9898,5.3209 L9.9854,5.3844 L9.9802,5.4478 L9.9742,5.5109 L9.9674,5.5738 L9.9598,5.6364 L9.9515,5.6988 L9.9423,5.761 L9.9325,5.8229 L9.9218,5.8846 L9.9105,5.946 L9.8983,6.0071 L9.8855,6.068 L9.8719,6.1286 L9.8575,6.1889 L9.8425,6.2489 L9.8267,6.3087 L9.8102,6.3681 L9.793,6.4273 L9.7751,6.4861 L9.7564,6.5447 L9.7371,6.6029 L9.7171,6.6608 L9.6964,6.7184 L9.675,6.7756 L9.653,6.8326 L9.6068,6.9454 L9.558,7.0568 L9.5066,7.1669 L9.4527,7.2754 L9.3962,7.3824 L9.3372,7.4879 L9.2757,7.5918 L9.2118,7.6941 L9.19438347,7.72056681 Z M4.9481,1.0003 L4.8964,1.0013 L4.8449,1.0029 L4.7936,1.0052 L4.7424,1.0081 L4.6915,1.0117 L4.6408,1.0159 L4.5902,1.0207 L4.5399,1.0261 L4.4898,1.0322 L4.4399,1.0388 L4.3902,1.0461 L4.3407,1.054 L4.2914,1.0625 L4.2424,1.0716 L4.1935,1.0813 L4.1449,1.0916 L4.0966,1.1024 L4.0484,1.1139 L4.0004,1.1259 L3.9527,1.1385 L3.9053,1.1517 L3.8581,1.1654 L3.8111,1.1797 L3.7644,1.1946 L3.7179,1.21 L3.6716,1.226 L3.6257,1.2425 L3.5799,1.2596 L3.5373,1.2761 L3.4444,1.3141 L3.3553,1.3531 L3.2674,1.3942 L3.1807,1.4373 L3.0951,1.4825 L3.0107,1.5297 L2.9276,1.5788 L2.8458,1.6299 L2.7652,1.683 L2.6861,1.7379 L2.6082,1.7946 L2.5319,1.8532 L2.4569,1.9136 L2.3834,1.9757 L2.3115,2.0395 L2.2411,2.1051 L2.1723,2.1723 L2.1051,2.2411 L2.0396,2.3115 L1.9758,2.3834 L1.9136,2.4569 L1.8533,2.5318 L1.7947,2.6082 L1.7379,2.686 L1.683,2.7652 L1.63,2.8457 L1.5789,2.9276 L1.5297,3.0107 L1.4825,3.095 L1.4374,3.1806 L1.3942,3.2674 L1.3531,3.3553 L1.3142,3.4443 L1.2761,3.5373 L1.2597,3.5798 L1.2426,3.6256 L1.226,3.6716 L1.2101,3.7178 L1.1947,3.7643 L1.1798,3.8111 L1.1655,3.8581 L1.1517,3.9053 L1.1386,3.9527 L1.126,4.0004 L1.1139,4.0484 L1.1025,4.0965 L1.0916,4.1449 L1.0813,4.1935 L1.0717,4.2423 L1.0626,4.2913 L1.0541,4.3407 L1.0462,4.3902 L1.0389,4.4398 L1.0322,4.4898 L1.0262,4.5398 L1.0207,4.5901 L1.0159,4.6408 L1.0117,4.6915 L1.0082,4.7424 L1.0052,4.7935 L1.003,4.8448 L1.0013,4.8964 L1.0003,4.9481 L1,5 L1.0003,5.0518 L1.0013,5.1035 L1.003,5.1551 L1.0052,5.2064 L1.0082,5.2575 L1.0117,5.3084 L1.0159,5.3591 L1.0207,5.4098 L1.0262,5.4601 L1.0322,5.5101 L1.0389,5.5601 L1.0462,5.6097 L1.0541,5.6592 L1.0626,5.7086 L1.0717,5.7576 L1.0813,5.8064 L1.0916,5.855 L1.1025,5.9034 L1.1139,5.9515 L1.126,5.9995 L1.1386,6.0472 L1.1517,6.0946 L1.1655,6.1418 L1.1798,6.1888 L1.1947,6.2357 L1.2101,6.2821 L1.226,6.3283 L1.2426,6.3743 L1.2597,6.4201 L1.2761,6.4626 L1.3142,6.5556 L1.3531,6.6446 L1.3942,6.7325 L1.4374,6.8193 L1.4825,6.9049 L1.5297,6.9892 L1.5789,7.0723 L1.63,7.1542 L1.683,7.2347 L1.7379,7.3139 L1.7947,7.3917 L1.8533,7.4681 L1.9136,7.543 L1.9758,7.6165 L2.0396,7.6884 L2.1051,7.7588 L2.1723,7.8276 L2.2411,7.8948 L2.3115,7.9604 L2.3834,8.0242 L2.4569,8.0863 L2.5319,8.1467 L2.6082,8.2053 L2.6861,8.262 L2.7652,8.3169 L2.8458,8.37 L2.9276,8.4211 L3.0107,8.4702 L3.0951,8.5174 L3.1807,8.5626 L3.2674,8.6058 L3.3553,8.6468 L3.4444,8.6858 L3.5373,8.7238 L3.5799,8.7403 L3.6257,8.7574 L3.6716,8.7739 L3.7179,8.7899 L3.7644,8.8053 L3.8111,8.8202 L3.8581,8.8345 L3.9053,8.8482 L3.9527,8.8614 L4.0004,8.874 L4.0484,8.886 L4.0965,8.8975 L4.1449,8.9083 L4.1935,8.9186 L4.2424,8.9283 L4.2914,8.9374 L4.3407,8.9459 L4.3902,8.9538 L4.4399,8.9611 L4.4898,8.9677 L4.5399,8.9738 L4.5902,8.9792 L4.6408,8.984 L4.6915,8.9882 L4.7424,8.9918 L4.7936,8.9947 L4.8449,8.997 L4.8964,8.9986 L4.9481,8.9996 L5,8.9999 L5.0519,8.9996 L5.1036,8.9986 L5.1551,8.997 L5.2064,8.9947 L5.2576,8.9918 L5.3085,8.9882 L5.3592,8.984 L5.4097,8.9792 L5.4601,8.9738 L5.5102,8.9677 L5.5601,8.9611 L5.6098,8.9538 L5.6593,8.9459 L5.7086,8.9374 L5.7576,8.9283 L5.8065,8.9186 L5.8551,8.9083 L5.9034,8.8975 L5.9516,8.886 L5.9996,8.874 L6.0472,8.8614 L6.0947,8.8482 L6.1419,8.8345 L6.1889,8.8202 L6.2357,8.8053 L6.2822,8.7899 L6.3283,8.7739 L6.3743,8.7574 L6.4201,8.7403 L6.4627,8.7238 L6.5557,8.6858 L6.6447,8.6468 L6.7326,8.6057 L6.8193,8.5626 L6.9049,8.5174 L6.9893,8.4703 L7.0724,8.4211 L7.1542,8.37 L7.2348,8.3169 L7.3139,8.262 L7.3917,8.2053 L7.4682,8.1467 L7.5431,8.0863 L7.6165,8.0242 L7.6885,7.9604 L7.7589,7.8948 L7.8277,7.8276 L7.8949,7.7588 L7.9604,7.6884 L8.0242,7.6165 L8.0864,7.543 L8.1468,7.4681 L8.2053,7.3917 L8.2621,7.3139 L8.317,7.2347 L8.37,7.1542 L8.4211,7.0724 L8.4703,6.9892 L8.5175,6.9049 L8.5626,6.8193 L8.6058,6.7325 L8.6469,6.6446 L8.6858,6.5556 L8.7239,6.4626 L8.7403,6.4201 L8.7574,6.3743 L8.774,6.3283 L8.79,6.282 L8.8054,6.2357 L8.8202,6.189 L8.8345,6.1418 L8.8483,6.0946 L8.8614,6.0472 L8.874,5.9995 L8.8861,5.9515 L8.8976,5.9033 L8.9084,5.855 L8.9187,5.8065 L8.9283,5.7576 L8.9374,5.7086 L8.9459,5.6592 L8.9538,5.6097 L8.9611,5.5601 L8.9678,5.5101 L8.9738,5.46 L8.9793,5.4097 L8.9841,5.3592 L8.9883,5.3085 L8.9918,5.2575 L8.9947,5.2064 L8.997,5.155 L8.9987,5.1035 L8.9997,5.0519 L9,5 L8.9997,4.948 L8.9987,4.8964 L8.997,4.8449 L8.9947,4.7935 L8.9918,4.7424 L8.9883,4.6914 L8.9841,4.6407 L8.9793,4.5902 L8.9738,4.5399 L8.9678,4.4898 L8.9611,4.4398 L8.9538,4.3902 L8.9459,4.3407 L8.9374,4.2913 L8.9283,4.2423 L8.9187,4.1934 L8.9084,4.1449 L8.8976,4.0966 L8.8861,4.0484 L8.874,4.0004 L8.8614,3.9527 L8.8483,3.9053 L8.8345,3.8581 L8.8202,3.8109 L8.8054,3.7643 L8.79,3.7179 L8.774,3.6716 L8.7574,3.6256 L8.7403,3.5798 L8.7239,3.5373 L8.6858,3.4443 L8.6469,3.3553 L8.6058,3.2674 L8.5626,3.1806 L8.5175,3.095 L8.4703,3.0107 L8.4211,2.9275 L8.37,2.8457 L8.317,2.7652 L8.2621,2.686 L8.2053,2.6082 L8.1468,2.5318 L8.0864,2.4569 L8.0242,2.3834 L7.9604,2.3115 L7.8949,2.2411 L7.8277,2.1723 L7.7589,2.1051 L7.6885,2.0395 L7.6165,1.9757 L7.5431,1.9136 L7.4682,1.8532 L7.3917,1.7946 L7.3139,1.7379 L7.2348,1.683 L7.1542,1.6299 L7.0724,1.5788 L6.9893,1.5297 L6.9049,1.4825 L6.8193,1.4373 L6.7326,1.3942 L6.6447,1.3531 L6.5557,1.3141 L6.4627,1.2761 L6.4201,1.2596 L6.3743,1.2425 L6.3283,1.226 L6.2821,1.21 L6.2357,1.1946 L6.1889,1.1797 L6.1419,1.1654 L6.0947,1.1517 L6.0472,1.1385 L5.9996,1.1259 L5.9516,1.1139 L5.9034,1.1024 L5.8551,1.0916 L5.8065,1.0813 L5.7576,1.0716 L5.7086,1.0625 L5.6593,1.054 L5.6098,1.0461 L5.5601,1.0388 L5.5102,1.0322 L5.4601,1.0261 L5.4097,1.0207 L5.3592,1.0159 L5.3085,1.0117 L5.2576,1.0081 L5.2064,1.0052 L5.1551,1.0029 L5.1036,1.0013 L5.0519,1.0003 L5,1 L4.9481,1.0003 Z M11.168,9.7117 L9.7713,11.1084 L9.763,11.1171 L9.7713,11.1259 L13.2893,14.6439 L13.2981,14.6523 L13.3069,14.6439 L14.7036,13.2472 L14.7119,13.2385 L14.7035,13.2297 L11.1855,9.7117 L11.1768,9.7034 L11.168,9.7117 Z" id="Combined-Shape"></path>
            </g>
        </g>
    </g>
</svg>