<?xml version="1.0" encoding="UTF-8"?>
<svg width="24px" height="24px" viewBox="0 0 24 24" version="1.1" xmlns="http://www.w3.org/2000/svg" xmlns:xlink="http://www.w3.org/1999/xlink" class="svg-icon svg-fill">
    <!-- Generator: sketchtool 55.2 (78181) - https://sketchapp.com -->
    <title>72B395CB-78E0-49D1-BBB6-DF5C0898066D</title>
    <desc>Created with sketchtool.</desc>
    <g id="Asset-Artboard-Page" stroke="none" stroke-width="1" fill="none" fill-rule="evenodd">
        <g id="Icons/menu/dashboard/settings/off">
            <rect id="Rectangle" fill="#B3D9EB" x="5" y="9" width="2" height="6"></rect>
            <rect id="Rectangle-Copy" fill="#B3D9EB" x="17" y="1" width="2" height="6"></rect>
            <rect id="Rectangle-Copy-2" fill="#B3D9EB" x="13" y="17" width="2" height="6"></rect>
            <path d="M17,2 L17,3 L17,5 L17,6 C17,6.552 17.448,7 18,7 C18.552,7 19,6.552 19,6 L19,5 L19,3 L19,2 C19,1.448 18.552,1 18,1 C17.448,1 17,1.448 17,2 Z M1,5 C0.447,5 0,4.553 0,4 C0,3.447 0.447,3 1,3 L16,3 L16,2 C16,0.896 16.896,0 18,0 C19.104,0 20,0.896 20,2 L20,3 L23,3 C23.553,3 24,3.447 24,4 C24,4.553 23.553,5 23,5 L20,5 L20,6 C20,7.104 19.104,8 18,8 C16.896,8 16,7.104 16,6 L16,5 L1,5 Z M7,14 L7,13 L7,11 L7,10 C7,9.448 6.552,9 6,9 C5.448,9 5,9.448 5,10 L5,11 L5,13 L5,14 C5,14.552 5.448,15 6,15 C6.552,15 7,14.552 7,14 Z M23,11 C23.553,11 24,11.447 24,12 C24,12.553 23.553,13 23,13 L8,13 L8,14 C8,15.104 7.104,16 6,16 C4.896,16 4,15.104 4,14 L4,13 L1,13 C0.447,13 0,12.553 0,12 C0,11.447 0.447,11 1,11 L4,11 L4,10 C4,8.896 4.896,8 6,8 C7.104,8 8,8.896 8,10 L8,11 L23,11 Z M15,22 L15,21 L15,19 L15,18 C15,17.448 14.552,17 14,17 C13.448,17 13,17.448 13,18 L13,19 L13,21 L13,22 C13,22.552 13.448,23 14,23 C14.552,23 15,22.552 15,22 Z M23,19 C23.553,19 24,19.447 24,20 C24,20.553 23.553,21 23,21 L16,21 L16,22 C16,23.104 15.104,24 14,24 C12.896,24 12,23.104 12,22 L12,21 L1,21 C0.447,21 0,20.553 0,20 C0,19.447 0.447,19 1,19 L12,19 L12,18 C12,16.896 12.896,16 14,16 C15.104,16 16,16.896 16,18 L16,19 L23,19 Z" id="Combined-Shape" fill="#41A1CD"></path>
        </g>
    </g>
</svg>