<?xml version="1.0" encoding="UTF-8"?>
<svg width="24px" height="24px" viewBox="0 0 24 24" version="1.1" xmlns="http://www.w3.org/2000/svg" xmlns:xlink="http://www.w3.org/1999/xlink" class="svg-icon svg-fill">
    <!-- Generator: sketchtool 55.2 (78181) - https://sketchapp.com -->
    <title>ACC0B11A-5D1D-4800-821A-F1D2602169BE</title>
    <desc>Created with sketchtool.</desc>
    <g id="Asset-Artboard-Page" stroke="none" stroke-width="1" fill="none" fill-rule="evenodd">
        <g id="Icons/menu/dashboard/stats" fill="#454D52">
            <path d="M14,23 L16,23 L16,14 L20,14 L20,23 L22,23 C22.552,23 23,22.552 23,22 L23,2 C23,1.448 22.552,1 22,1 L2,1 C1.448,1 1,1.448 1,2 L1,22 C1,22.552 1.448,23 2,23 L4,23 L4,8 L8,8 L8,23 L10,23 L10,4 L14,4 L14,23 Z M22,0 C23.104,0 24,0.896 24,2 L24,22 C24,23.104 23.104,24 22,24 L2,24 C0.896,24 0,23.104 0,22 L0,2 C0,0.896 0.896,0 2,0 L22,0 Z M5,23 L7,23 L7,9 L5,9 L5,23 Z M17,23 L19,23 L19,15 L17,15 L17,23 Z M11,23 L13,23 L13,5 L11,5 L11,23 Z" id="Combined-Shape"></path>
        </g>
    </g>
</svg>